# xmcd
#
# Track frame offsets:
#	150
#	19158
#	37953
#	59218
#	71688
#	90495
#	108468
#	126955
#
# Disc length: 1812 seconds
#
# Revision: 0
# Processed by: cddbd v1.5.2PL0 Copyright (c) Steve Scherf et al.
# Submitted via: EasyCDDAExtractor 15.2.5.1
#
DISCID=6e071208
DTITLE=김성호 - 2집 우리는 빛을 따라가야 해 (1991) by oreum.com
DYEAR=1991
DGENRE=Pop
TTITLE0=그 사랑 그 사랑 어디서 오는걸까
TTITLE1=사람들이 너무 무서워
TTITLE2=우리는 빛을 따라가야 해
TTITLE3=마음을 열지 않을래
TTITLE4=사랑하는 사람들
TTITLE5=사랑도 미움도
TTITLE6=도시의 방랑자
TTITLE7=122
EXTD=
EXTT0=
EXTT1=
EXTT2=
EXTT3=
EXTT4=
EXTT5=
EXTT6=
EXTT7=
PLAYORDER=
